# xmcd
#
# Track frame offsets: 
#        150
#        20334
#        38653
#        59170
#        79188
#        135658
#        161794
#        182471
#        209934
#        237797
#        257406
#        277318
#        303450
#
# Disc length: 4439 seconds
#
# Revision: 0
# Processed by: cddbd v1.5.2PL0 Copyright (c) Steve Scherf et al.
# Submitted via: ExactAudioCopy v1.0b3
#
DISCID=bd11550d
DTITLE=さだまさし - 天晴 -オールタイム・ベスト- Disc2 とき
DYEAR=2013
DGENRE=Folk
TTITLE0=雨やどり
TTITLE1=風の篝火
TTITLE2=無縁坂
TTITLE3=秋桜
TTITLE4=親父の一番長い日
TTITLE5=つゆのあとさき
TTITLE6=檸檬
TTITLE7=天然色の化石
TTITLE8=October~リリー・カサブランカ~
TTITLE9=飛梅
TTITLE10=修二会
TTITLE11=舞姫
TTITLE12=虹~ヒーロー~
EXTD=
EXTT0=
EXTT1=
EXTT2=
EXTT3=
EXTT4=
EXTT5=
EXTT6=
EXTT7=
EXTT8=
EXTT9=
EXTT10=
EXTT11=
EXTT12=
PLAYORDER=
